# xmcd
# Track frame offsets:
# 150
# 16328
# 33588
# 48507
# 66280
# 82970
# 96637
# 113251
# 132310
# 147835
# 165286
# 182517
# 199649
# 217400
# 229468
# 248712
# 265030
# 282505
# 302287
# 316628
#
# Disc length: 4525 seconds
# Revision: 2
# Processed by: cddbd v1.5.2PL0 Copyright (c) Steve Scherf et al.
# Submitted via: VisiTrax 2.9.10.228 - For more info visit www.synapsa.com
#
DISCID=1411ab14
DTITLE=Various Artist - CDX Volume 401 July 2006
DYEAR=2006
DGENRE=Country
TTITLE0=George Strait - Give It Away
TTITLE1=The Oak Ridge Boys - Hard To Be Cool (In A Minivan)
TTITLE2=Mark Chesnutt - Heard It In A Love Song
TTITLE3=Joe Nichols - I'll Wait For You
TTITLE4=Tim McGraw - My Little Girl
TTITLE5=Royal Wade Kimes - No Use
TTITLE6=Leland Martin - She Rules The Roost
TTITLE7=LeAnn Rimes - Some People
TTITLE8=Montgomery Gentry - Some People Change
TTITLE9=Keith Anderson - Three Chord Country And American Rock and Roll (f/ Stev
TTITLE9=en Tyler) [Single Remix]
TTITLE10=Keith Anderson - Three Chord Country And American Rock and Roll
TTITLE11=Phil Vassar - The Woman In My Life [Single Edit]
TTITLE12=The Lost Trailers - Why Me
TTITLE13=Kevin Sharp - You Are The Reason Why
TTITLE14=Len Snow, Jr. - Country's What I Choose
TTITLE15=Ela - In A Little While
TTITLE16=Chris Gray - Not Bad For A Good Ol' Boy
TTITLE17=Skyla Spencer - One More Chance
TTITLE18=Randy Archer - Shots In The Dark
TTITLE19=W.C. Edgar - When You Don't Buy American
EXTD=
EXTT0=
EXTT1=
EXTT2=
EXTT3=
EXTT4=
EXTT5=
EXTT6=
EXTT7=
EXTT8=
EXTT9=
EXTT10=
EXTT11=
EXTT12=
EXTT13=
EXTT14=
EXTT15=
EXTT16=
EXTT17=
EXTT18=
EXTT19=
PLAYORDER=
